<?xml version="1.0" encoding="utf-8"?>
<!-- Generator: Adobe Illustrator 27.0.0, SVG Export Plug-In . SVG Version: 6.00 Build 0)  -->
<svg version="1.1" id="Camada_1" xmlns="http://www.w3.org/2000/svg" xmlns:xlink="http://www.w3.org/1999/xlink" x="0px" y="0px"
	 viewBox="0 0 1000 1000" style="enable-background:new 0 0 1000 1000;" xml:space="preserve">
<style type="text/css">
	.st0{fill:#3481BD;}
</style>
<g>
	<path class="st0" d="M756.7,596.1c-3.2-28.7-11.3-55.4-26.2-80.2c-13.9-23.5-32.2-43.6-54.9-60.6c22.8-13,46.3-20.3,71.1-22.7
		c14.4-1.5,7.9-11.2,8.9-17.5c1.6-9.7-5.7-7.3-10.9-7.1c-29.8,1.5-57,11.3-82.8,25.8c-7.5,4.1-12.8,4.5-20.4,0
		c-38.1-22-79.1-34.7-122.8-37.9c-58.2-4.5-111.9,9.2-162,38.6c-6.2,3.2-10.7,3.7-17.3,0c-26.2-15.2-54.4-24.9-84.9-26.9
		c-4.2-0.3-12-3.4-10.4,5.8c1.1,6.6-6.6,17.7,8.7,18.6c24.6,1.6,47.3,9.9,70.5,22.2h0.3h0.2c-44.1,36.6-71,80.8-78.6,136.4
		c-1.3,10.7,0.3,14.3,11.7,14.3c57.2-0.2,114.5,0,171.7,0c14.9,0,15.2,0,14.7-15.4c-1.3-42.1,16.8-74.8,47.1-102.2
		c6.5-5.8,11.5-6.3,18.1-0.2c30.6,28.4,50.9,61.2,48,105c-0.5,7.8,0.2,13,10.4,13c60.6-0.2,120.9,0,181.4,0
		C755.1,605,757.7,603.4,756.7,596.1z M410.3,578.3c-21.9-0.2-43.9,0-65.9,0c-20.7,0-41.6-0.2-62.4,0c-7.6,0.2-10.7-0.8-8.1-9.7
		c11.3-39,33.4-70.3,65.3-95.1c5-3.7,8.7-4.1,13.8,0c31.9,24.8,53.3,56.7,65.3,95.3l-0.2-0.2C420.5,575.8,418.4,578.3,410.3,578.3z
		 M429.1,527.1c-14.6-28.4-33.5-50.9-58.6-71h0.2h0.2c37.4-10.4,71.1-6.3,105.5,10.7C455.8,483.5,440.3,502.3,429.1,527.1z
		 M500.9,448c-2.3,1.5-4.7,1.3-6.8-0.2c-15.1-8.7-31.1-15.1-48-20.6l-0.2-0.2c34.3-10.9,68.9-8.7,105.8-2.1
		C533.1,432.9,516.3,439.1,500.9,448z M523.3,467.5c0,0-0.1,0.1-0.1,0.1l0-0.2C523.3,467.5,523.3,467.5,523.3,467.5
		c21.1-17.1,75.3-23.1,102.6-10.3c-11.2,10.2-21.5,20.3-30.8,31.9c-9.1,11.3-16.5,24-24.6,37.9C558.2,503.5,542.9,483.6,523.3,467.5
		z M719.3,578.3c-21.9-0.2-43.9,0-65.9,0c-21.9,0-43.9-0.2-65.9,0c-6.3,0-8.3-1.5-6.3-8.3c10.7-39.7,32.9-71.3,64.3-97.4
		c4.1-3.2,7.5-3.1,11.7,0c33.9,24.3,57.3,56.2,69.8,96.2l0.1,0.4C729.4,577,727,578.3,719.3,578.3z"/>
</g>
</svg>
