<?xml version="1.0" encoding="UTF-8"?>
<svg id="Camada_1" data-name="Camada 1" xmlns="http://www.w3.org/2000/svg" viewBox="0 0 729.59 112.64">
  <defs>
    <style>
      .cls-1 {
        fill: #3481bd;
      }
    </style>
  </defs>
  <g id="Camada_1-2" data-name="Camada 1-2">
    <path class="cls-1" d="M261.29,64.64c-7.5-12.7-17.3-23.4-29.4-32.5,12.3-7,25-10.8,38.2-12.1,7.7-.8,4.2-5.9,4.8-9.4,.8-5.3-3.2-4-5.9-3.8-16,.8-30.6,6.1-44.4,13.9-4,2.2-6.9,2.4-11,0C193.29,8.84,171.39,2.24,147.79,.44c-31.2-2.4-60.1,5-86.9,20.7-3.3,1.9-5.7,2.1-9.2,0C37.69,12.94,22.49,7.84,6.09,6.74c-2.2-.1-6.5-1.9-5.6,3.2,.7,3.4-3.6,9.4,4.8,9.9,13.2,.8,25.4,5.3,37.8,11.9l.1,.1C19.79,51.54,5.29,75.24,1.19,104.94c-.8,5.6,.1,7.5,6.2,7.5,30.6-.1,61.4,0,92,0,8.1,0,8.2,0,7.9-8.2-.8-22.6,9-40.1,25.2-54.8,3.6-3.2,6.2-3.4,9.8-.1,16.5,15.2,27.3,33,25.8,56.4-.3,4.1,.1,6.9,5.6,6.9,32.4-.1,64.8,0,97.2,0,3.7,0,4.9-.9,4.5-4.9-1.8-15.4-6.2-29.8-14.1-43.1h0ZM89.49,98.04c-11.7-.3-23.6,0-35.4,0H20.79c-4.1,0-5.8-.4-4.4-5.3,6.1-20.9,18-37.6,35-51,2.6-2,4.6-2.1,7.3,0,17.2,13.3,28.5,30.5,35,51.1,1.2,4,0,5.3-4.2,5.2h0Zm10.2-27.5c-7.8-15.3-18-27.2-31.4-38,20.1-5.7,38.2-3.4,56.6,5.7-10.8,9.1-19.3,19.1-25.2,32.3h0Zm38.5-42.4c-1.2,.7-2.5,.5-3.7-.1-8.1-4.8-16.8-8-25.8-11,18.3-5.8,36.7-4.6,56.4-1.1,.1,0,.1-.1,.2-.1v.1h-.2c-9.7,4.2-18.7,7.4-26.9,12.2h0Zm37.4,42.3c-6.7-12.7-14.9-23.2-25.4-32,11.4-9.2,40.3-12.4,55.1-5.5-5.9,5.5-11.5,11-16.4,17.2s-9,12.8-13.2,20.3h-.1Zm80,27.7c-11.8-.3-23.6,0-35.4,0h-35.5c-3.4,0-4.5-.8-3.4-4.4,5.8-21.3,17.7-38.3,34.6-52.3,2.2-1.9,4-1.7,6.2,0,18.2,13.1,30.8,30.2,37.5,51.6,1.3,4.3,.2,5.3-4,5.1h0Zm251.7-51.6c.4,6-1.4,7.9-7.5,7.6-12.6-.6-12.6-.2-12.6,12.6v13.2h-.1c0,6.6-.5,13.2,.1,19.8,.6,6.5-3.2,5.6-7.3,5.9-4.4,.3-6.2-.8-6.1-5.6,.3-13.2,.1-26.4,0-39.6,0-3.1,1-6.5-4.4-6.8-3.9-.2-1.9-4.2-2.1-6.5-.2-1.9-1.2-5,2.4-5s4.7-1.6,4.4-4.8c-1.5-16.3,9.8-28.6,32.7-25.6,6.1,.8,2.7,5.9,3.5,8.9,.9,3-1,4.3-4.1,4.1-2.6-.2-5.3-.1-7.9,.1-4.3,.4-7.5,2.6-9.4,6.3-3.6,6.9-1.8,9.8,5.9,10,2.4,.1,4.8,.5,7.2,.3,4-.3,5.1,1.1,5.3,5.1h0Zm-121,35.2c-2.2,15.4-14.4,25.2-31.3,25.1h0c-16.7-.1-30-11-31.3-26.1-.2-2.2-1.9-6.2,2.6-5.8,3.6,.4,8.9-3.4,10.8,3.4,3.6,13.3,17.2,18.7,29.1,11.7,8.7-5.1,9.2-15.9,1-21.9-4.2-3.1-9.2-4.1-14.1-5.1-4.1-.8-8.2-1.6-12-3.4-11.6-5.3-16.9-15.5-15-28.6,1.6-11.4,11.1-20,24.1-21.9,17.5-2.6,33,8.8,34.6,25.4,.2,2.5,1.4,6.1-3,5.5-3.5-.5-8.6,3-10.2-3.8-2.8-11.9-12.3-17-23.3-12.7-5.6,2.1-9.1,6-9,12.4,.1,6.1,3.5,9.9,8.9,11.8,5,1.7,10.2,2.6,15.2,4.1,16.8,5,25,15.6,22.9,29.9h0Zm72-34.2c0-1.8,.9-4.1-1.2-5.4-3.8-2.4-11.9,.6-13.5,4.8h0c-15.9-9.3-31.5-7.8-41.5,4.1-10.2,12.1-10.4,32.9-.5,45.2,10.1,12.5,24.6,14,42.4,3.9,.5,9,7.1,4.8,11.3,5,5.4,.3,2.8-4.5,2.9-7,.3-16.8,.2-33.7,.1-50.6h0Zm-32.2,46.7c-10.4,.1-18.5-8.9-18.4-20.5,.1-11.1,8.1-19.7,18.6-19.7s19,8.8,19,20.1c-.1,11-8.6,20-19.2,20.1h0Zm125.5-52.1c-24.7-7.8-47,11.9-42.9,38,2.3,14.4,13.7,25.3,27.9,26.5,16.3,1.4,28.5-5.5,33.2-19-6.7,.2-13-.5-19.4,3.7-8.8,5.7-21.4,1.6-26.5-7.1-3-5.2-2.4-6.4,3.5-6.4,13.6-.1,27.3-.1,40.9,0,2.5,0,4.5,.2,4.8-3.5,1.1-13.7-8.3-28-21.5-32.2h0Zm3.5,24.7c-4.8-.1-9.6,0-14.4,0h0c-4.8,0-9.6-.1-14.4,0-3.2,.1-3.3-1.3-2-3.6,3.7-6.4,9.3-9.6,16.8-9.5,7.3,.1,12.5,3.5,16.1,9.5,1.3,2.2,1,3.6-2.1,3.6h0ZM719.99,13.54c-5.4,0-9.6,4-9.6,9.3s4.2,9.5,9.6,9.5,9.6-4.2,9.6-9.5-4.2-9.3-9.6-9.3Zm.1,16.8c-4.2,0-7.3-3.3-7.3-7.4s3.1-7.5,7.2-7.5,7.2,3.4,7.2,7.5-3,7.4-7.1,7.4h0Zm2-7.2v-.1c1.1-.3,1.9-1.1,1.9-2.2,0-.9-.4-1.6-.9-2-.7-.4-1.5-.7-3.2-.7-1.5,0-2.7,.1-3.6,.3v9.3h2.2v-3.8h1c1.2,0,1.8,.5,1.9,1.5,.3,1.1,.5,1.9,.7,2.3h2.3c-.2-.3-.4-.9-.7-2.3-.1-1.3-.6-2-1.6-2.3h0Zm-2.5-.7h-1v-2.7c.2-.1,.6-.1,1.2-.1,1.4,0,2,.6,2,1.4,0,1-1,1.4-2.2,1.4h0Zm-149.8,65.2h0Zm70.5,13.6c.2,5.8-3.7,4.2-6.6,4.2s-6.8,1.6-6.7-4.2c.2-10.5,.2-21.1-.1-31.6-.3-9.9-5.8-15.7-14.7-16.1-9.6-.5-16.4,5.5-16.7,15.3-.3,10.5-.4,21.1,0,31.6,.3,5.7-2.9,5.2-6.5,5.1-3.7-.1-7.4,.9-7.1-5.3,.5-8.8,.1-17.6,.1-26.3h-.1c0-8.8-.1-17.6,.1-26.4,0-1.9-1.4-5.3,1.9-5.3,3.8,0,8.8-2.7,11.2,1.7,1.5,2.8,1.9,1.6,3.4,.8,21.6-11.4,41.5,.4,41.6,24.8,.2,10.6-.1,21.2,.2,31.7h0Zm70.2-59.3c-4.4-2.5-11.8,.4-13.2,5.2h0c-15-9.6-29.4-8.8-39.9,2.1-11.2,11.7-12.7,31.5-3.3,45,4,5.8,9.6,9.7,16.4,11.4,9.7,2.5,18.6,.3,26.7-5.9,.8,8.8,7,4.2,10.6,5.1,3.3,.9,3.9-1.5,3.9-4.3,0-18.2,.1-36.5,.1-54.7,.1-1.3,.5-2.9-1.3-3.9Zm-31,51.7c-10.5-.2-17.9-8.6-17.8-20.2h0c.1-11.1,8.1-19.6,18.6-19.6s18.8,9,18.6,20.4c-.1,11.2-8.5,19.6-19.4,19.4h0Z"/>
  </g>
</svg>