<?xml version="1.0" encoding="UTF-8"?>
<svg id="Camada_1" data-name="Camada 1" xmlns="http://www.w3.org/2000/svg" viewBox="0 0 991.38 405.28">
  <defs>
    <style>
      .cls-1 {
        fill: #3481bd;
      }
    </style>
  </defs>
  <path class="cls-1" d="M990.98,387.91c-6.17-55.38-21.8-106.9-50.55-154.75-26.82-45.34-62.13-84.13-105.93-116.93,43.99-25.08,89.34-39.17,137.19-43.8,27.79-2.89,15.24-21.61,17.17-33.77,3.09-18.72-11-14.09-21.03-13.7-57.5,2.89-109.98,21.8-159.77,49.78-14.47,7.91-24.7,8.68-39.36,0C695.18,32.3,616.07,7.79,531.75,1.62c-112.3-8.68-215.92,17.75-312.59,74.48-11.96,6.17-20.65,7.14-33.38,0C135.23,46.77,80.81,28.05,21.96,24.2c-8.1-.58-23.15-6.56-20.07,11.19,2.12,12.73-12.73,34.15,16.79,35.89,47.47,3.09,91.27,19.1,136.03,42.84h.96C70.59,184.73,18.68,270.02,4.02,377.3c-2.51,20.65,.58,27.59,22.58,27.59,110.37-.39,220.93,0,331.3,0,28.75,0,29.33,0,28.36-29.71-2.51-81.23,32.42-144.33,90.88-197.2,12.54-11.19,22.19-12.16,34.92-.39,59.04,54.8,98.21,118.09,92.62,202.6-.96,15.05,.39,25.08,20.07,25.08,116.93-.39,233.28,0,350.02,0,13.12-.19,18.14-3.28,16.21-17.37Zm-668.39-34.35c-42.26-.39-84.71,0-127.16,0-39.94,0-80.27-.39-120.4,0-14.66,.39-20.65-1.54-15.63-18.72,21.8-75.25,64.45-135.65,126-183.5,9.65-7.14,16.79-7.91,26.63,0,61.55,47.85,102.84,109.4,126,183.89l-.39-.39c4.63,13.89,.58,18.72-15.05,18.72Zm36.28-98.79c-28.17-54.8-64.64-98.21-113.07-137h.77c72.16-20.07,137.19-12.16,203.57,20.65-39.75,32.22-69.66,68.5-91.27,116.35ZM497.4,102.15c-4.44,2.89-9.07,2.51-13.12-.39-29.14-16.79-60.01-29.14-92.62-39.75l-.39-.39c66.18-21.03,132.95-16.79,204.15-4.05-35.89,15.44-68.31,27.4-98.02,44.57Zm43.22,37.63l-.19,.19v-.39l.19,.19c40.71-33,145.29-44.57,197.97-19.87-21.61,19.68-41.49,39.17-59.43,61.55-17.56,21.8-31.84,46.31-47.47,73.13-23.73-45.34-53.26-83.74-91.07-114.81Zm378.19,213.79c-42.26-.39-84.71,0-127.16,0s-84.71-.39-127.16,0c-12.16,0-16.02-2.89-12.16-16.02,20.65-76.6,63.48-137.58,124.07-187.94,7.91-6.17,14.47-5.98,22.58,0,65.41,46.89,110.56,108.44,134.68,185.62l.19,.77c4.44,15.05-.19,17.56-15.05,17.56Z"/>
</svg>